<?xml version="1.0" ?><!DOCTYPE svg  PUBLIC '-//W3C//DTD SVG 1.1//EN'  'http://www.w3.org/Graphics/SVG/1.1/DTD/svg11.dtd'><svg enable-background="new 0 0 64 64" height="64px" id="Layer_1" version="1.1" viewBox="0 0 64 64" width="64px" xml:space="preserve" xmlns="http://www.w3.org/2000/svg" xmlns:xlink="http://www.w3.org/1999/xlink"><g><path d="M39.066,27.729c-5.45,0-9.666,4.434-9.666,9.668c0,5.449,4.216,9.597,10.105,9.597   c4.94,0,9.084-4.073,9.084-9.452C48.59,31.943,44.446,27.729,39.066,27.729z" fill="#096AD8"/><path d="M46.168,43.811c3.493-3.493,3.543-9.304-0.261-13.107c-3.958-3.958-9.868-4.008-13.672-0.203" fill="#0D56BF"/><path d="M49,52.806c-4,3.345-7.148,4.579-11.797,4.579c-4.729,0-8.918-1.527-12.334-4.579   c-4.508-3.998-6.895-9.231-6.895-15.338c0-5.595,2.151-10.614,6.224-14.538c3.631-3.562,7.972-5.38,12.918-5.38   c4.724,0,8.883,1.6,10.883,4.944V6.528C43,3.56,37.868,1.834,31.923,1.834C15.261,1.834,1.795,15.338,1.795,32   c0,16.661,13.523,30.083,30.185,30.083c6.146,0,11.881-2.083,16.648-5.083H49V52.806z" fill="#2A98F2"/><path d="M1.834,32c0,16.661,13.504,30.083,30.166,30.083c6.146,0,11.861-2.083,16.629-5.083H49v-4.194   c-4,3.345-7.148,4.579-11.797,4.579c-4.729,0-8.918-1.527-12.334-4.579c-4.508-3.998-6.895-9.231-6.895-15.338   c0-5.595,2.151-10.614,6.224-14.538c3.631-3.562,7.972-5.38,12.918-5.38c4.724,0,8.883,1.6,10.883,4.944V6.528   C43,3.56,37.868,1.834,31.923,1.834" fill="#1580EA"/><path d="M1.757,32.236c0,16.661,13.542,29.965,30.205,29.965c6.146,0,11.9-2.201,16.667-5.201H49v-4.194   c-4,3.345-7.148,4.579-11.797,4.579c-4.729,0-8.918-1.527-12.334-4.579c-4.508-3.998-6.895-9.231-6.895-15.338   c0-5.595,2.151-10.614,6.224-14.538c3.631-3.562,7.972-5.38,12.918-5.38c4.724,0,8.883,1.6,10.883,4.944V7" fill="#096AD8"/><path d="M60,44.092c1.623-3.703,2.166-7.791,2.166-12.092S61.623,23.611,60,19.908" fill="#0D56BF"/><path d="M60,19.908V3.105L48,5.482v1.046C53,9.732,57,14.387,60,19.908z" fill="#0D56BF"/><path d="M60,44.092C57,49.439,53.819,54,49,57h11V44.092z" fill="#0D56BF"/></g></svg>