<?xml version="1.0" encoding="utf-8"?>
<!-- Generator: Adobe Illustrator 27.5.0, SVG Export Plug-In . SVG Version: 6.00 Build 0)  -->
<svg version="1.1" id="BACKGROUND" xmlns="http://www.w3.org/2000/svg" xmlns:xlink="http://www.w3.org/1999/xlink" x="0px" y="0px"
	 viewBox="0 0 750 500" style="enable-background:new 0 0 750 500;" xml:space="preserve">
<g>
	<linearGradient id="SVGID_1_" gradientUnits="userSpaceOnUse" x1="375" y1="500" x2="375" y2="-9.094947e-13">
		<stop  offset="0" style="stop-color:#FFFFFF"/>
		<stop  offset="0.5872" style="stop-color:#3084FF"/>
		<stop  offset="0.6601" style="stop-color:#2F7BF9"/>
		<stop  offset="0.7799" style="stop-color:#2C62EA"/>
		<stop  offset="0.9308" style="stop-color:#283AD2"/>
		<stop  offset="0.9949" style="stop-color:#2627C6"/>
	</linearGradient>
	<rect style="fill:url(#SVGID_1_);" width="750" height="500"/>
	<g>
		<defs>
			<rect id="SVGID_00000054959150544905222170000001633635815883477125_" width="750" height="500"/>
		</defs>
		<clipPath id="SVGID_00000147211810228227668490000010625540872144034184_">
			<use xlink:href="#SVGID_00000054959150544905222170000001633635815883477125_"  style="overflow:visible;"/>
		</clipPath>
		<g style="clip-path:url(#SVGID_00000147211810228227668490000010625540872144034184_);">
			<g style="opacity:0.5;">
				<g>
					<path style="fill:#FFFFFF;" d="M608.491,438.449c-6.091-0.766-11.948,0.877-16.174,4.061
						c-4.101-5.446-10.93-9.44-19.197-10.479c-12.711-1.598-24.68,4.295-29.444,13.676c-3.66-3.499-8.774-5.986-14.736-6.735
						c-7.115-0.894-13.96,0.874-19.112,4.38c4.16-26.562-18.066-51.135-50.226-55.177c-28.261-3.552-54.887,9.921-64.702,31.145
						c-3.128-1.959-6.874-3.32-11.025-3.842c-8.077-1.015-15.813,1.391-21.108,5.893c-2.344-10.617-12.553-19.329-26.169-21.04
						c-2.896-0.364-5.752-0.362-8.524-0.083c-3.033-15.451-17.768-28.208-37.475-30.685c-24.449-3.073-47.279,10.838-50.992,31.07
						c-2.045,11.142,2.143,21.872,10.395,29.783c-3.631,3.993-6.188,8.738-7.283,13.983c-19.146,0.653-35.674,12.433-38.659,28.697
						c-3.388,18.458,11.947,35.693,34.251,38.497c14.509,1.824,28.389-2.914,37.254-11.526
						c4.121,13.889,17.977,25.043,36.124,27.324c22.134,2.782,42.904-8.609,48.886-25.967c5.1,5.061,12.342,8.677,20.834,9.744
						c12.093,1.52,23.633-2.49,30.955-9.72c5.903,7.478,15.477,12.926,26.988,14.372c17.694,2.224,34.411-5.697,41.552-18.502
						c7.172,6.682,17.099,11.409,28.611,12.856c26.164,3.289,50.597-11.598,54.571-33.25c0.002-0.011,0.003-0.021,0.005-0.033
						c0.26,0.039,0.509,0.097,0.772,0.13c11.201,1.408,21.843-2.994,27.475-10.478c2.767,2.085,6.279,3.542,10.256,4.042
						c10.723,1.348,20.736-4.753,22.365-13.627C626.586,448.083,619.214,439.797,608.491,438.449z"/>
					<path style="fill:#FFFFFF;" d="M603.143,468.68c5.803,0.675,11.376-1.158,15.102-4.495c-12.995,4.643-23.06-8.679-23.06-8.679
						c-18.8,17.289-37.8,3.045-37.8,3.045c-0.362,16.151-15.063,29.54-36.686,30.746c-21.623,1.206-40.364-13.008-38.992-25.759
						c-6.999,13.191-48.616,15.355-48.04-3.616c25.39-4.707,33.422-19.309,33.422-19.309c-32.713,21.361-73.471-0.226-73.471-0.226
						c1.108,12.164,23.048,18.435,23.048,18.435c-6.945,19.105-34.648,31.202-40.556,23.95c-8.936,9.027-20.849-0.236-20.849-0.236
						c-14.165,19.579-46.636,8.364-42.802-11.103c20.358-3.104,28.285-15.53,28.285-15.53c-39.545,14.878-77.624-2.241-77.624-2.241
						c4.37,13.199,34.158,18.413,34.158,18.413c-24.615,31.37-75.332,19.018-89.337-3.996c-0.69,1.707-1.218,3.479-1.554,5.308
						c-1.544,8.412,0.962,16.818,7.059,23.67c6.096,6.851,15.05,11.329,25.215,12.606l0.436,0.053
						c13.106,1.524,26.068-2.556,34.673-10.915l2.985-2.899l1.096,3.7c4.036,13.606,17.456,23.757,34.188,25.86l0.471,0.057
						c20.449,2.377,40.138-8.211,45.797-24.631l1.222-3.547l2.853,2.833c4.933,4.895,11.815,8.115,19.379,9.065l0.352,0.043
						c10.777,1.253,21.41-2.144,28.442-9.087l2.042-2.015l1.738,2.202c5.748,7.282,14.994,12.206,25.368,13.51l0.418,0.05
						c15.988,1.859,31.878-5.313,38.641-17.442l1.51-2.707l2.392,2.229c7.043,6.562,16.704,10.903,27.203,12.223l0.515,0.062
						c24.597,2.86,47.642-11.351,51.371-31.677l0.002-0.011l0.001-0.004l0.341-2.007l2.414,0.365
						c0.144,0.021,0.285,0.047,0.424,0.073c0.093,0.017,0.185,0.035,0.279,0.047l0.284,0.034c9.833,1.143,19.583-2.631,24.837-9.615
						l1.495-1.987l2.092,1.576c2.525,1.901,5.646,3.132,9.024,3.556L603.143,468.68z"/>
					<path style="fill:#FFFFFF;" d="M258.325,442.979c0,0-11.428-2.919-8.324-12.565c-3.631,3.993-6.188,8.738-7.283,13.983
						c-14.632,0.499-27.712,7.509-34.41,18.041c9.85-10.08,30.814-13.745,35.111-9.535
						C243.419,452.904,246.447,442.851,258.325,442.979z"/>
					<g>
						<path style="fill:#FFFFFF;" d="M509.826,443.35c4.161-26.562-18.066-51.135-50.226-55.177
							c-28.261-3.552-54.887,9.921-64.702,31.145c-3.128-1.959-6.874-3.32-11.025-3.842c-8.077-1.015-15.813,1.391-21.108,5.893
							c-2.344-10.617-12.553-19.329-26.169-21.04c-2.896-0.364-5.752-0.362-8.524-0.083c-3.033-15.451-17.768-28.208-37.475-30.685
							c-24.449-3.073-47.279,10.838-50.992,31.07c-2.045,11.142,2.143,21.872,10.395,29.783
							c-5.729-16.799-0.927-34.184,19.419-41.885c0,0-8.9,8.812-7.286,16.44c0,0,12.941-20.159,40.417-7.555
							c0,0-1.391-7.383-13.064-10.272c17.811-0.555,30.451,13.765,27.392,27.116c0,0,16.428-9.549,35.161,1.601
							c7.828,5.286,4.588,11.912,4.588,11.912s-12.633-1.906-19.431,3.868c0,0,16.173-3.371,37.74,1.981
							c0,0-0.491-3.339-10.762-8.253c0,0,14.418-8.608,35.034,0.791c0,0,16.254-27.213,51.848-25.045c0,0-16.364,1.38-20.751,8.529
							c0,0,23.53-7.768,42.931,4.116c0,0-2.797-6.89-8.878-10.004c0,0,19.748-0.625,35.835,22.547
							c4.462,6.427,5.424,19.449,3.841,22.547c0,0,18.388-12.05,39.642-3.142c-3.66-3.499-8.774-5.986-14.736-6.735
							C521.825,438.076,514.979,439.844,509.826,443.35z"/>
						<path style="fill:#FFFFFF;" d="M582.852,434.913c-2.918-1.418-6.181-2.436-9.733-2.882
							c-12.711-1.598-24.68,4.295-29.444,13.676C543.675,445.706,560.851,430.346,582.852,434.913z"/>
					</g>
				</g>
			</g>
			<g>
				<path style="fill:#E5F0FF;" d="M678.972,74.875c-4.021,0-7.762,0.968-10.905,2.628c-0.129-2.639-1.751-4.959-4.2-6.416
					c4.524-2.403,7.519-6.567,7.519-11.305c0-7.442-7.383-13.476-16.491-13.476c-2.64,0-5.133,0.51-7.345,1.411
					c-3.712-9.268-14.374-15.965-26.956-15.965c-15.665,0-28.364,10.377-28.364,23.178c0,1.227,0.119,2.431,0.344,3.606
					c-2.731-1.264-5.885-1.989-9.249-1.989c-9.498,0-17.346,5.757-18.616,13.233c-2.369-0.88-4.998-1.374-7.77-1.374
					c-4.158,0-7.999,1.105-11.112,2.973c-2.514-3.241-6.932-5.399-11.975-5.399c-7.833,0-14.182,5.189-14.182,11.589
					c0,6.401,6.35,11.589,14.182,11.589c1.816,0,3.547-0.289,5.143-0.798c2.39,6.241,9.519,10.77,17.944,10.77
					c6.867,0,12.872-3.01,16.153-7.503c1.752,2.546,5.084,4.269,8.913,4.269c3.414,0,6.429-1.372,8.286-3.473
					c0.704,10.35,11.195,18.566,24.036,18.566c10.76,0,19.87-5.769,22.955-13.728c2.456,1.186,5.319,1.87,8.378,1.87
					c5.51,0,10.385-2.21,13.379-5.602c1.324,8.032,9.74,14.227,19.932,14.227c11.111,0,20.119-7.361,20.119-16.441
					S690.083,74.875,678.972,74.875z"/>
				<path style="fill:#CCDAF1;" d="M636.339,97.018l0.376-0.969l1.071,0.517c2.38,1.15,5.103,1.757,7.875,1.757
					c4.964,0,9.665-1.969,12.577-5.267l1.452-1.645l0.331,2.01c1.271,7.711,9.418,13.526,18.951,13.526
					c10.548,0,19.129-7.012,19.129-15.632c-19.899,14.32-35.4-0.863-30.673-10.511c-10.774,2.282-11.873-4.851-11.873-4.851
					c-3.958,2.156-8.575,1.617-8.575,1.617c3.298-2.695,5.277-7.546,5.277-7.546c-8.575,8.085-25.066,9.702-25.066,9.702
					c4.617,1.078,11.214,0.539,11.214,0.539s-1.319,10.242-13.852,11.32c-12.533,1.078-17.15-7.546-17.15-7.546
					c-8.575,5.929-16.491,0-16.491,0c-10.554,3.773-14.512-1.078-14.512-1.078c7.256,0,11.214-2.695,11.214-2.695
					c-17.15,2.695-24.406-4.851-24.406-4.851c0,3.234,4.617,5.929,4.617,5.929c-15.171,6.468-23.087-4.851-23.087-4.851
					c-10.719,8.66-21.713,4.168-24.076,1.078c0,5.944,5.918,10.781,13.193,10.781c1.627,0,3.236-0.25,4.784-0.743l0.987-0.314
					l0.316,0.826c2.336,6.103,9.168,10.203,17,10.203c6.237,0,12.101-2.724,15.303-7.109l0.875-1.198l0.837,1.216
					c1.637,2.379,4.721,3.857,8.05,3.857c2.949,0,5.747-1.173,7.484-3.138l1.635-1.849l0.155,2.278
					c0.679,9.983,10.803,17.802,23.048,17.802C624.442,110.182,633.287,104.892,636.339,97.018z"/>
				<path style="fill:#FFFFFF;" d="M565.845,72.18c0,0,1.996-14.779,20.114-15.478c-0.861-0.099-1.739-0.154-2.634-0.154
					c-9.498,0-17.346,5.757-18.616,13.233c-2.369-0.88-4.998-1.374-7.77-1.374c-3.858,0-7.435,0.96-10.419,2.59
					C548.901,70.478,559.978,68.345,565.845,72.18z"/>
				<path style="fill:#FFFFFF;" d="M662.701,50.799c0,0-6.334-3.917-15.151-3.081c-3.712-9.268-14.374-15.965-26.956-15.965
					c-15.665,0-28.364,10.377-28.364,23.178c0,1.227,0.119,2.431,0.344,3.606v2.053c0,0-11.118-1.348-11.337,7.097
					c0,0,6.047-6.738,14.842-3.234c0,0,6.157-13.655,22.867-14.644c0,0-6.706-1.617-14.512,1.168c0,0,15.172-12.218,35.18,0.449
					c0,0-8.795-0.09-10.224,6.019c0,0,7.806-6.558,18.36-2.605C647.75,54.841,652.587,49.091,662.701,50.799z"/>
				<path style="fill:#FFFFFF;" d="M696.939,83.921c-3.313-5.364-10.112-9.046-17.967-9.046c-4.021,0-7.762,0.968-10.905,2.628
					C668.067,77.503,685.889,73.574,696.939,83.921z"/>
			</g>
			<g>
				<path style="fill:#F8FBFF;" d="M770.43,484.377c-9.304,0-17.963,2.239-25.236,6.081c-0.299-6.108-4.052-11.477-9.72-14.848
					c10.471-5.56,17.401-15.197,17.401-26.161c0-17.224-17.086-31.186-38.163-31.186c-6.109,0-11.878,1.179-16.998,3.264
					c-8.591-21.448-33.265-36.945-62.382-36.945c-36.252,0-65.641,24.015-65.641,53.64c0,2.839,0.275,5.626,0.795,8.346
					c-6.321-2.926-13.62-4.604-21.403-4.604c-21.98,0-40.143,13.323-43.08,30.624c-5.482-2.037-11.566-3.18-17.981-3.18
					c-9.623,0-18.511,2.558-25.716,6.88c-5.819-7.5-16.041-12.494-27.713-12.494c-18.126,0-32.82,12.008-32.82,26.82
					c0,14.812,14.694,26.82,32.82,26.82c4.203,0,8.208-0.67,11.902-1.846c5.53,14.443,22.03,24.924,41.527,24.924
					c15.893,0,29.789-6.967,37.381-17.364c4.054,5.892,11.766,9.879,20.627,9.879c7.9,0,14.877-3.176,19.175-8.038
					c1.629,23.952,25.907,42.966,55.625,42.966c24.902,0,45.982-13.351,53.122-31.77c5.683,2.745,12.308,4.327,19.389,4.327
					c12.75,0,24.032-5.115,30.963-12.965c3.064,18.588,22.541,32.924,46.127,32.924c25.714,0,46.559-17.034,46.559-38.047
					S796.144,484.377,770.43,484.377z"/>
				<path style="fill:#F0F6FF;" d="M671.768,535.62l0.87-2.243l2.478,1.197c5.508,2.661,11.809,4.066,18.224,4.066
					c11.487,0,22.368-4.557,29.106-12.188l3.359-3.806l0.767,4.651c2.941,17.845,21.796,31.302,43.857,31.302
					c24.409,0,44.269-16.228,44.269-36.176c-46.05,33.14-81.924-1.997-70.984-24.325c-24.933,5.28-27.478-11.227-27.478-11.227
					c-9.159,4.99-19.845,3.742-19.845,3.742c7.633-6.237,12.212-17.464,12.212-17.464c-19.845,18.711-58.008,22.454-58.008,22.454
					c10.686,2.495,25.951,1.247,25.951,1.247s-3.053,23.701-32.057,26.196c-29.004,2.495-39.69-17.464-39.69-17.464
					c-19.845,13.722-38.163,0-38.163,0c-24.424,8.732-33.584-2.495-33.584-2.495c16.792,0,25.951-6.237,25.951-6.237
					c-39.69,6.237-56.482-11.227-56.482-11.227c0,7.485,10.686,13.722,10.686,13.722c-35.11,14.969-53.429-11.227-53.429-11.227
					c-24.806,20.042-50.248,9.646-55.718,2.495c0,13.757,13.696,24.949,30.531,24.949c3.765,0,7.49-0.578,11.07-1.718l2.285-0.728
					l0.732,1.913c5.407,14.123,21.217,23.611,39.342,23.611c14.434,0,28.005-6.304,35.415-16.451l2.025-2.773l1.937,2.815
					c3.788,5.505,10.927,8.925,18.631,8.925c6.825,0,13.299-2.715,17.319-7.262l3.783-4.28l0.359,5.272
					c1.571,23.102,25,41.198,53.339,41.198C644.235,566.084,664.706,553.842,671.768,535.62z"/>
				<path style="fill:#FFFFFF;" d="M508.63,478.14c0,0,4.619-34.202,46.548-35.82c-1.992-0.229-4.025-0.356-6.095-0.356
					c-21.98,0-40.143,13.323-43.08,30.624c-5.482-2.037-11.566-3.18-17.981-3.18c-8.928,0-17.206,2.223-24.112,5.993
					C469.417,474.2,495.052,469.264,508.63,478.14z"/>
				<path style="fill:#FFFFFF;" d="M732.776,428.658c0,0-14.659-9.064-35.062-7.131c-8.591-21.448-33.265-36.945-62.382-36.945
					c-36.252,0-65.641,24.015-65.641,53.64c0,2.839,0.275,5.626,0.795,8.346v4.752c0,0-25.728-3.119-26.237,16.425
					c0,0,13.993-15.593,34.347-7.485c0,0,14.248-31.602,52.92-33.889c0,0-15.52-3.742-33.584,2.703c0,0,35.11-28.275,81.415,1.04
					c0,0-20.354-0.208-23.661,13.93c0,0,18.064-15.177,42.489-6.029C698.174,438.014,709.369,424.708,732.776,428.658z"/>
				<path style="fill:#FFFFFF;" d="M812.01,505.31c-7.667-12.414-23.401-20.933-41.58-20.933c-9.304,0-17.963,2.239-25.236,6.081
					C745.194,490.458,786.436,481.365,812.01,505.31z"/>
			</g>
			<g>
				<path style="fill:#E5F0FF;" d="M793.486,305.691c-5.578,0-10.769,1.247-15.128,3.386c-0.179-3.401-2.429-6.39-5.827-8.268
					c6.277-3.096,10.432-8.462,10.432-14.567c0-9.591-10.243-17.365-22.878-17.365c-3.662,0-7.121,0.657-10.19,1.818
					c-5.15-11.943-19.942-20.572-37.397-20.572c-21.733,0-39.351,13.373-39.351,29.868c0,1.581,0.165,3.133,0.477,4.647
					c-3.789-1.629-8.165-2.564-12.831-2.564c-13.177,0-24.065,7.419-25.826,17.052c-3.286-1.134-6.934-1.771-10.779-1.771
					c-5.769,0-11.097,1.424-15.416,3.831c-3.488-4.176-9.616-6.957-16.613-6.957c-10.866,0-19.675,6.686-19.675,14.934
					s8.809,14.934,19.675,14.934c2.52,0,4.92-0.373,7.135-1.028c3.315,8.042,13.207,13.878,24.895,13.878
					c9.527,0,17.858-3.879,22.409-9.669c2.43,3.281,7.054,5.501,12.366,5.501c4.736,0,8.919-1.769,11.495-4.476
					c0.976,13.337,15.531,23.925,33.346,23.925c14.928,0,27.566-7.435,31.846-17.691c3.407,1.529,7.379,2.409,11.623,2.409
					c7.644,0,14.407-2.848,18.562-7.219c1.836,10.351,13.513,18.333,27.652,18.333c15.415,0,27.911-9.485,27.911-21.186
					C821.397,315.176,808.901,305.691,793.486,305.691z"/>
				<path style="fill:#CCDAF1;" d="M734.34,334.225l0.521-1.249l1.486,0.666c3.302,1.482,7.079,2.264,10.925,2.264
					c6.886,0,13.409-2.537,17.449-6.787l2.014-2.119l0.46,2.59c1.763,9.937,13.066,17.43,26.292,17.43
					c14.633,0,26.539-9.036,26.539-20.144c-27.606,18.453-49.112-1.112-42.554-13.545c-14.947,2.94-16.472-6.251-16.472-6.251
					c-5.491,2.778-11.897,2.084-11.897,2.084c4.576-3.473,7.321-9.725,7.321-9.725c-11.897,10.419-34.775,12.503-34.775,12.503
					c6.406,1.389,15.557,0.695,15.557,0.695s-1.83,13.198-19.218,14.587c-17.387,1.389-23.793-9.724-23.793-9.724
					c-11.897,7.641-22.878,0-22.878,0c-14.642,4.862-20.133-1.389-20.133-1.389c10.066,0,15.557-3.473,15.557-3.473
					c-23.793,3.473-33.86-6.251-33.86-6.251c0,4.168,6.406,7.641,6.406,7.641c-21.048,8.335-32.03-6.251-32.03-6.251
					c-14.871,11.16-30.123,5.371-33.402,1.389c0,7.66,8.211,13.892,18.303,13.892c2.257,0,4.49-0.322,6.636-0.957l1.37-0.405
					l0.439,1.065c3.241,7.864,12.719,13.147,23.585,13.147c8.653,0,16.788-3.51,21.231-9.161l1.214-1.544l1.161,1.567
					c2.271,3.065,6.55,4.97,11.169,4.97c4.091,0,7.973-1.512,10.382-4.044l2.268-2.383l0.215,2.936
					c0.942,12.864,14.987,22.941,31.976,22.941C717.834,351.188,730.106,344.371,734.34,334.225z"/>
				<path style="fill:#FFFFFF;" d="M636.541,302.218c0,0,2.769-19.044,27.905-19.945c-1.194-0.128-2.413-0.198-3.654-0.198
					c-13.177,0-24.065,7.419-25.826,17.052c-3.286-1.134-6.934-1.771-10.779-1.771c-5.352,0-10.315,1.238-14.455,3.337
					C613.033,300.024,628.401,297.275,636.541,302.218z"/>
				<path style="fill:#FFFFFF;" d="M770.912,274.665c0,0-8.788-5.047-21.019-3.971c-5.15-11.943-19.942-20.572-37.397-20.572
					c-21.733,0-39.351,13.373-39.351,29.868c0,1.581,0.165,3.133,0.477,4.647v2.646c0,0-15.424-1.737-15.729,9.146
					c0,0,8.389-8.683,20.59-4.168c0,0,8.541-17.597,31.725-18.87c0,0-9.304-2.084-20.133,1.505c0,0,21.048-15.745,48.807,0.579
					c0,0-12.202-0.116-14.185,7.757c0,0,10.829-8.451,25.471-3.357C750.17,279.875,756.88,272.465,770.912,274.665z"/>
				<path style="fill:#FFFFFF;" d="M818.413,317.347c-4.596-6.913-14.029-11.656-24.927-11.656c-5.578,0-10.769,1.247-15.128,3.386
					C778.357,309.077,803.081,304.014,818.413,317.347z"/>
			</g>
			<g>
				<path style="fill:#E5F0FF;" d="M137.413,140.204c-2.583-0.325-5.067,0.372-6.859,1.722c-1.739-2.31-4.635-4.003-8.141-4.444
					c-5.39-0.678-10.466,1.821-12.486,5.799c-1.552-1.484-3.721-2.538-6.249-2.856c-3.017-0.379-5.92,0.37-8.105,1.857
					c1.764-11.264-7.661-21.685-21.299-23.399c-11.985-1.506-23.276,4.207-27.438,13.208c-1.326-0.831-2.915-1.408-4.675-1.629
					c-3.425-0.43-6.706,0.59-8.951,2.499c-0.994-4.502-5.323-8.197-11.098-8.923c-1.228-0.154-2.439-0.154-3.615-0.035
					c-1.286-6.552-7.535-11.962-15.892-13.013c-10.368-1.303-20.049,4.596-21.624,13.176c-0.867,4.725,0.909,9.275,4.408,12.63
					c-1.54,1.693-2.624,3.705-3.089,5.93c-8.119,0.277-15.128,5.272-16.394,12.17c-1.437,7.827,5.066,15.136,14.525,16.325
					c6.153,0.773,12.039-1.236,15.798-4.888c1.748,5.89,7.623,10.62,15.319,11.587c9.386,1.18,18.194-3.651,20.731-11.012
					c2.163,2.146,5.234,3.68,8.835,4.132c5.128,0.645,10.022-1.056,13.127-4.122c2.503,3.171,6.564,5.481,11.445,6.095
					c7.503,0.943,14.593-2.416,17.621-7.846c3.042,2.834,7.251,4.838,12.133,5.452c11.095,1.395,21.456-4.918,23.142-14.1
					c0.001-0.005,0.001-0.009,0.002-0.014c0.11,0.016,0.216,0.041,0.327,0.055c4.75,0.597,9.263-1.269,11.651-4.443
					c1.173,0.884,2.663,1.502,4.349,1.714c4.547,0.572,8.794-2.016,9.484-5.779C145.087,144.29,141.96,140.776,137.413,140.204z"/>
				<path style="fill:#CCDAF1;" d="M135.145,153.024c2.461,0.286,4.824-0.491,6.404-1.906c-5.511,1.969-9.779-3.681-9.779-3.681
					c-7.973,7.332-16.03,1.291-16.03,1.291c-0.153,6.849-6.388,12.527-15.557,13.038c-9.17,0.511-17.117-5.516-16.535-10.923
					c-2.968,5.594-20.616,6.511-20.372-1.533c10.767-1.996,14.173-8.188,14.173-8.188c-13.872,9.059-31.156-0.096-31.156-0.096
					c0.47,5.158,9.774,7.818,9.774,7.818c-2.945,8.102-14.693,13.232-17.198,10.157c-3.789,3.828-8.841-0.1-8.841-0.1
					c-6.007,8.303-19.777,3.547-18.151-4.709c8.633-1.316,11.995-6.586,11.995-6.586c-16.769,6.309-32.918-0.95-32.918-0.95
					c1.853,5.597,14.485,7.808,14.485,7.808c-10.438,13.303-31.946,8.065-37.885-1.695c-0.292,0.724-0.516,1.475-0.659,2.251
					c-0.655,3.567,0.408,7.132,2.994,10.038c2.585,2.906,6.382,4.804,10.693,5.346l0.185,0.022
					c5.558,0.646,11.055-1.084,14.704-4.629l1.266-1.229l0.465,1.569c1.712,5.77,7.403,10.075,14.498,10.966l0.2,0.024
					c8.672,1.008,17.021-3.482,19.421-10.445l0.518-1.504l1.21,1.201c2.092,2.076,5.01,3.441,8.218,3.844l0.149,0.018
					c4.57,0.531,9.079-0.909,12.061-3.854l0.866-0.854l0.737,0.934c2.438,3.088,6.358,5.176,10.758,5.729l0.177,0.021
					c6.78,0.788,13.518-2.253,16.386-7.397l0.64-1.148l1.014,0.945c2.987,2.783,7.084,4.624,11.536,5.183l0.218,0.026
					c10.431,1.213,20.203-4.814,21.785-13.433l0.001-0.005l0-0.002l0.144-0.851l1.024,0.155c0.061,0.009,0.121,0.02,0.18,0.031
					c0.039,0.007,0.078,0.015,0.118,0.02l0.12,0.014c4.17,0.485,8.304-1.116,10.533-4.077l0.634-0.843l0.887,0.668
					c1.071,0.806,2.394,1.328,3.827,1.508L135.145,153.024z"/>
				<path style="fill:#FFFFFF;" d="M-11.081,142.125c0,0-4.847-1.238-3.53-5.328c-1.54,1.693-2.624,3.705-3.089,5.93
					c-6.205,0.212-11.752,3.184-14.592,7.651c4.177-4.275,13.067-5.829,14.89-4.044C-17.402,146.334-16.118,142.071-11.081,142.125z
					"/>
				<g>
					<path style="fill:#FFFFFF;" d="M95.573,142.283c1.764-11.264-7.661-21.685-21.299-23.399
						c-11.985-1.506-23.276,4.207-27.438,13.208c-1.326-0.831-2.915-1.408-4.675-1.629c-3.425-0.43-6.706,0.59-8.951,2.499
						c-0.994-4.502-5.323-8.197-11.098-8.923c-1.228-0.154-2.439-0.153-3.615-0.035c-1.286-6.552-7.535-11.962-15.892-13.013
						c-10.368-1.303-20.049,4.596-21.624,13.176c-0.867,4.725,0.909,9.275,4.408,12.63c-2.43-7.124-0.393-14.497,8.235-17.762
						c0,0-3.774,3.737-3.09,6.971c0,0,5.488-8.549,17.139-3.204c0,0-0.59-3.131-5.54-4.356c7.553-0.235,12.913,5.838,11.616,11.499
						c0,0,6.967-4.049,14.91,0.679c3.32,2.242,1.946,5.051,1.946,5.051s-5.357-0.809-8.24,1.64c0,0,6.859-1.43,16.004,0.84
						c0,0-0.208-1.416-4.564-3.5c0,0,6.114-3.651,14.857,0.335c0,0,6.893-11.54,21.987-10.621c0,0-6.939,0.585-8.8,3.617
						c0,0,9.978-3.294,18.206,1.745c0,0-1.186-2.922-3.765-4.242c0,0,8.375-0.265,15.197,9.561c1.892,2.726,2.3,8.248,1.629,9.562
						c0,0,7.798-5.11,16.811-1.332c-1.552-1.484-3.721-2.538-6.249-2.856C100.661,140.046,97.758,140.796,95.573,142.283z"/>
					<path style="fill:none;stroke:#FFFFFF;stroke-miterlimit:10;" d="M126.54,138.704c-1.238-0.601-2.621-1.033-4.127-1.222
						c-5.39-0.677-10.466,1.821-12.486,5.799C109.927,143.281,117.21,136.768,126.54,138.704z"/>
				</g>
			</g>
			<g>
				<g>
					<path style="fill:#E5F0FF;" d="M3.712,271.939c2.614-0.329,5.128,0.376,6.942,1.743c1.76-2.337,4.691-4.051,8.239-4.497
						c5.455-0.686,10.592,1.843,12.636,5.869c1.571-1.502,3.765-2.569,6.324-2.891c3.053-0.384,5.991,0.375,8.202,1.88
						c-1.785-11.4,7.753-21.945,21.555-23.68c12.129-1.524,23.555,4.258,27.767,13.366c1.342-0.841,2.95-1.425,4.731-1.649
						c3.466-0.436,6.786,0.597,9.059,2.529c1.006-4.556,5.387-8.295,11.231-9.03c1.243-0.156,2.469-0.155,3.658-0.036
						c1.302-6.631,7.625-12.106,16.083-13.169c10.492-1.319,20.29,4.651,21.884,13.334c0.878,4.782-0.92,9.387-4.461,12.782
						c1.558,1.714,2.656,3.75,3.126,6.001c8.217,0.28,15.31,5.336,16.591,12.316c1.454,7.921-5.127,15.318-14.699,16.521
						c-6.227,0.783-12.183-1.25-15.988-4.946c-1.769,5.961-7.715,10.747-15.503,11.726c-9.499,1.194-18.413-3.695-20.98-11.144
						c-2.189,2.172-5.297,3.724-8.941,4.182c-5.19,0.652-10.142-1.069-13.285-4.171c-2.533,3.209-6.642,5.547-11.582,6.168
						c-7.593,0.954-14.768-2.445-17.833-7.94c-3.078,2.868-7.338,4.896-12.279,5.517c-11.229,1.411-21.714-4.977-23.42-14.27
						c-0.001-0.005-0.001-0.009-0.002-0.014c-0.111,0.017-0.219,0.042-0.331,0.056c-4.807,0.604-9.374-1.285-11.791-4.497
						c-1.188,0.895-2.695,1.52-4.402,1.735c-4.602,0.578-8.899-2.04-9.598-5.848C-4.054,276.073-0.89,272.517,3.712,271.939z"/>
					<path style="fill:#CCDAF1;" d="M6.006,284.913c-2.49,0.289-4.882-0.497-6.481-1.929c5.577,1.993,9.896-3.725,9.896-3.725
						c8.068,7.42,16.222,1.307,16.222,1.307c0.155,6.931,6.464,12.678,15.744,13.195c9.28,0.518,17.322-5.582,16.734-11.055
						c3.004,5.661,20.864,6.59,20.617-1.552c-10.896-2.02-14.343-8.287-14.343-8.287c14.039,9.167,31.531-0.097,31.531-0.097
						c-0.476,5.22-9.891,7.911-9.891,7.911c2.981,8.199,14.869,13.391,17.405,10.279c3.835,3.874,8.948-0.101,8.948-0.101
						c6.079,8.402,20.014,3.589,18.369-4.765c-8.737-1.332-12.139-6.665-12.139-6.665c16.971,6.385,33.313-0.962,33.313-0.962
						c-1.875,5.665-14.659,7.902-14.659,7.902c10.564,13.463,32.329,8.162,38.34-1.715c0.296,0.733,0.523,1.493,0.667,2.278
						c0.663,3.61-0.413,7.218-3.03,10.158c-2.616,2.94-6.459,4.862-10.821,5.41l-0.187,0.023c-5.625,0.654-11.187-1.097-14.88-4.684
						l-1.281-1.244l-0.47,1.588c-1.732,5.839-7.492,10.196-14.672,11.098l-0.202,0.025c-8.776,1.02-17.226-3.524-19.654-10.57
						l-0.524-1.522l-1.224,1.216c-2.117,2.101-5.071,3.482-8.317,3.89l-0.151,0.018c-4.625,0.538-9.188-0.92-12.206-3.9
						l-0.876-0.865l-0.746,0.945c-2.467,3.125-6.435,5.238-10.887,5.798l-0.179,0.022c-6.861,0.798-13.681-2.28-16.583-7.485
						l-0.648-1.162l-1.027,0.957c-3.023,2.816-7.169,4.679-11.674,5.246l-0.221,0.027c-10.556,1.227-20.446-4.871-22.047-13.595
						l-0.001-0.005l0-0.002l-0.146-0.861l-1.036,0.156c-0.062,0.009-0.122,0.02-0.182,0.031c-0.04,0.007-0.079,0.015-0.12,0.02
						l-0.122,0.015c-4.22,0.491-8.404-1.129-10.659-4.126l-0.641-0.853l-0.898,0.676c-1.084,0.816-2.423,1.344-3.873,1.526
						L6.006,284.913z"/>
					<path style="fill:#FFFFFF;" d="M153.989,273.883c0,0,4.905-1.253,3.572-5.392c1.558,1.714,2.656,3.75,3.126,6.001
						c6.28,0.214,11.893,3.223,14.767,7.742c-4.227-4.326-13.224-5.899-15.068-4.092
						C160.386,278.142,159.086,273.828,153.989,273.883z"/>
					<g>
						<path style="fill:#FFFFFF;" d="M46.055,274.042c-1.786-11.4,7.753-21.945,21.555-23.68
							c12.129-1.524,23.555,4.258,27.767,13.366c1.342-0.841,2.95-1.425,4.731-1.649c3.466-0.436,6.786,0.597,9.059,2.529
							c1.006-4.556,5.387-8.295,11.231-9.03c1.243-0.156,2.469-0.155,3.658-0.036c1.302-6.631,7.625-12.106,16.083-13.169
							c10.492-1.319,20.29,4.651,21.884,13.334c0.878,4.782-0.92,9.387-4.461,12.782c2.459-7.21,0.398-14.67-8.334-17.975
							c0,0,3.819,3.782,3.127,7.055c0,0-5.554-8.651-17.345-3.242c0,0,0.597-3.168,5.607-4.408
							c-7.644-0.238-13.068,5.908-11.755,11.637c0,0-7.05-4.098-15.09,0.687c-3.36,2.269-1.969,5.112-1.969,5.112
							s5.422-0.818,8.339,1.66c0,0-6.941-1.447-16.197,0.85c0,0,0.211-1.433,4.619-3.542c0,0-6.188-3.694-15.035,0.339
							c0,0-6.976-11.679-22.251-10.748c0,0,7.023,0.592,8.905,3.66c0,0-10.098-3.334-18.424,1.766c0,0,1.2-2.957,3.81-4.293
							c0,0-8.475-0.268-15.379,9.676c-1.915,2.758-2.328,8.347-1.648,9.676c0,0-7.891-5.171-17.013-1.348
							c1.571-1.502,3.765-2.569,6.324-2.891C40.905,271.779,43.843,272.538,46.055,274.042z"/>
						<path style="fill:none;stroke:#FFFFFF;stroke-miterlimit:10;" d="M14.715,270.421c1.252-0.608,2.653-1.046,4.177-1.237
							c5.455-0.686,10.592,1.843,12.636,5.869C31.528,275.053,24.157,268.461,14.715,270.421z"/>
					</g>
				</g>
				<g>
					<path style="fill:#E5F0FF;" d="M303.526,280.562c-3.276-0.412-6.426,0.472-8.699,2.184c-2.206-2.929-5.879-5.077-10.325-5.636
						c-6.837-0.859-13.274,2.31-15.837,7.355c-1.968-1.882-4.719-3.22-7.926-3.623c-3.827-0.481-7.508,0.47-10.28,2.356
						c2.238-14.287-9.717-27.503-27.014-29.677c-15.2-1.91-29.521,5.336-34.801,16.752c-1.682-1.054-3.697-1.786-5.93-2.066
						c-4.344-0.546-8.505,0.748-11.353,3.169c-1.26-5.71-6.751-10.396-14.075-11.317c-1.558-0.196-3.094-0.195-4.585-0.045
						c-1.631-8.31-9.557-15.172-20.156-16.504c-13.15-1.653-25.429,5.829-27.427,16.711c-1.1,5.993,1.153,11.764,5.591,16.019
						c-1.953,2.147-3.328,4.7-3.917,7.521c-10.298,0.351-19.188,6.687-20.793,15.435c-1.822,9.928,6.426,19.198,18.422,20.706
						c7.804,0.981,15.269-1.567,20.037-6.199c2.217,7.47,9.669,13.47,19.43,14.696c11.905,1.496,23.076-4.63,26.294-13.967
						c2.743,2.722,6.638,4.667,11.206,5.241c6.505,0.818,12.711-1.339,16.649-5.228c3.175,4.022,8.325,6.952,14.516,7.73
						c9.517,1.196,18.508-3.064,22.349-9.952c3.858,3.594,9.197,6.136,15.389,6.914c14.073,1.769,27.214-6.238,29.351-17.884
						c0.001-0.006,0.001-0.012,0.003-0.018c0.14,0.021,0.274,0.052,0.415,0.07c6.025,0.757,11.748-1.61,14.777-5.636
						c1.488,1.121,3.377,1.905,5.516,2.174c5.768,0.725,11.153-2.557,12.029-7.329C313.259,285.743,309.294,281.286,303.526,280.562
						z"/>
					<path style="fill:#CCDAF1;" d="M300.65,296.822c3.121,0.363,6.119-0.623,8.123-2.418c-6.989,2.497-12.403-4.668-12.403-4.668
						c-10.112,9.299-20.331,1.638-20.331,1.638c-0.195,8.687-8.102,15.888-19.732,16.537c-11.63,0.649-21.71-6.996-20.972-13.854
						c-3.764,7.095-26.148,8.259-25.839-1.945c13.656-2.532,17.976-10.386,17.976-10.386c-17.595,11.489-39.517-0.122-39.517-0.122
						c0.596,6.543,12.397,9.915,12.397,9.915c-3.736,10.276-18.636,16.782-21.813,12.882c-4.806,4.855-11.214-0.127-11.214-0.127
						c-7.619,10.531-25.084,4.499-23.022-5.972c10.95-1.669,15.214-8.353,15.214-8.353c-21.269,8.002-41.751-1.205-41.751-1.205
						c2.35,7.1,18.372,9.904,18.372,9.904c-13.239,16.872-40.518,10.229-48.051-2.149c-0.371,0.918-0.655,1.871-0.836,2.855
						c-0.831,4.525,0.518,9.046,3.797,12.731c3.279,3.685,8.095,6.093,13.562,6.78l0.234,0.028
						c7.049,0.819,14.021-1.375,18.649-5.871l1.606-1.559l0.59,1.99c2.171,7.318,9.389,12.778,18.389,13.909l0.253,0.031
						c10.999,1.279,21.589-4.417,24.632-13.248l0.657-1.908l1.535,1.523c2.653,2.633,6.355,4.365,10.423,4.876l0.189,0.023
						c5.796,0.674,11.516-1.153,15.298-4.888l1.098-1.084l0.935,1.184c3.092,3.917,8.065,6.565,13.645,7.266l0.225,0.027
						c8.599,1,17.146-2.858,20.783-9.381l0.812-1.456l1.286,1.199c3.788,3.53,8.984,5.864,14.631,6.574l0.277,0.034
						c13.23,1.538,25.625-6.105,27.631-17.038l0.001-0.006l0-0.002l0.183-1.08l1.298,0.196c0.077,0.011,0.153,0.025,0.228,0.039
						c0.05,0.009,0.099,0.019,0.15,0.025l0.153,0.019c5.289,0.615,10.533-1.415,13.359-5.171l0.804-1.069l1.125,0.848
						c1.358,1.023,3.036,1.684,4.854,1.913L300.65,296.822z"/>
					<path style="fill:#FFFFFF;" d="M115.187,282.998c0,0-6.147-1.57-4.477-6.758c-1.953,2.148-3.328,4.7-3.917,7.521
						c-7.87,0.268-14.905,4.039-18.508,9.703c5.298-5.422,16.574-7.393,18.885-5.129
						C107.17,288.336,108.799,282.929,115.187,282.998z"/>
					<g>
						<path style="fill:#FFFFFF;" d="M250.459,283.198c2.238-14.287-9.717-27.503-27.014-29.677
							c-15.2-1.91-29.521,5.336-34.8,16.752c-1.682-1.054-3.697-1.786-5.93-2.066c-4.344-0.546-8.505,0.748-11.353,3.169
							c-1.26-5.71-6.751-10.396-14.075-11.317c-1.558-0.196-3.094-0.195-4.585-0.045c-1.631-8.31-9.557-15.172-20.156-16.504
							c-13.15-1.653-25.429,5.829-27.427,16.711c-1.1,5.993,1.153,11.764,5.591,16.019c-3.081-9.036-0.498-18.386,10.445-22.528
							c0,0-4.787,4.74-3.919,8.842c0,0,6.961-10.842,21.739-4.064c0,0-0.748-3.971-7.027-5.525
							c9.579-0.299,16.378,7.404,14.733,14.584c0,0,8.836-5.136,18.911,0.861c4.211,2.843,2.468,6.407,2.468,6.407
							s-6.795-1.025-10.451,2.08c0,0,8.699-1.813,20.299,1.065c0,0-0.264-1.796-5.789-4.439c0,0,7.755-4.63,18.843,0.425
							c0,0,8.742-14.637,27.886-13.47c0,0-8.801,0.742-11.161,4.587c0,0,12.656-4.178,23.091,2.214c0,0-1.504-3.706-4.775-5.381
							c0,0,10.622-0.336,19.274,12.127c2.4,3.457,2.917,10.461,2.066,12.127c0,0,9.89-6.481,21.322-1.69
							c-1.968-1.882-4.719-3.22-7.926-3.623C256.913,280.361,253.231,281.312,250.459,283.198z"/>
						<path style="fill:none;stroke:#FFFFFF;stroke-miterlimit:10;" d="M289.736,278.66c-1.57-0.763-3.325-1.31-5.235-1.55
							c-6.837-0.859-13.274,2.31-15.837,7.355C268.665,284.465,277.903,276.203,289.736,278.66z"/>
					</g>
				</g>
			</g>
			<g>
				<g>
					<path style="fill:#F8FBFF;" d="M-22.781,462.734c4.2-0.528,8.239,0.605,11.154,2.8c2.828-3.756,7.537-6.51,13.238-7.227
						c8.765-1.102,17.019,2.962,20.304,9.431c2.524-2.413,6.05-4.128,10.162-4.645c4.906-0.617,9.627,0.602,13.18,3.02
						c-2.869-18.317,12.458-35.262,34.635-38.05c19.489-2.45,37.85,6.841,44.618,21.477c2.157-1.351,4.74-2.289,7.603-2.649
						c5.57-0.7,10.905,0.959,14.556,4.063c1.616-7.321,8.656-13.329,18.046-14.509c1.997-0.251,3.967-0.25,5.878-0.057
						c2.091-10.655,12.253-19.452,25.842-21.16c16.86-2.119,32.603,7.474,35.164,21.426c1.41,7.684-1.478,15.083-7.168,20.538
						c2.504,2.753,4.267,6.025,5.022,9.642c13.203,0.451,24.6,8.574,26.659,19.789c2.336,12.728-8.239,24.614-23.619,26.547
						c-10.006,1.258-19.577-2.009-25.69-7.948c-2.842,9.578-12.397,17.27-24.911,18.842c-15.263,1.919-29.586-5.937-33.712-17.907
						c-3.517,3.49-8.511,5.984-14.367,6.719c-8.34,1.048-16.297-1.717-21.346-6.702c-4.07,5.157-10.673,8.913-18.611,9.911
						c-12.201,1.534-23.729-3.929-28.654-12.759c-4.946,4.608-11.791,7.867-19.73,8.865c-18.043,2.268-34.891-7.998-37.631-22.929
						c-0.001-0.008-0.002-0.015-0.003-0.022c-0.179,0.027-0.351,0.067-0.532,0.09c-7.724,0.971-15.063-2.065-18.946-7.225
						c-1.908,1.438-4.33,2.443-7.073,2.787c-7.395,0.929-14.3-3.278-15.423-9.397C-35.26,469.378-30.176,463.664-22.781,462.734z"/>
					<path style="fill:#F0F6FF;" d="M-19.094,483.581c-4.002,0.465-7.845-0.799-10.414-3.1c8.961,3.202,15.902-5.985,15.902-5.985
						c12.965,11.923,26.067,2.1,26.067,2.1c0.25,11.137,10.387,20.371,25.298,21.202c14.911,0.832,27.834-8.97,26.889-17.763
						c4.826,9.096,33.525,10.588,33.128-2.493c-17.509-3.246-23.048-13.316-23.048-13.316c22.558,14.73,50.665-0.156,50.665-0.156
						c-0.764,8.388-15.894,12.712-15.894,12.712c4.789,13.175,23.893,21.517,27.967,16.516c6.162,6.225,14.377-0.163,14.377-0.163
						c9.768,13.501,32.16,5.768,29.516-7.657c-14.039-2.14-19.505-10.709-19.505-10.709c27.27,10.259,53.529-1.545,53.529-1.545
						c-3.013,9.102-23.555,12.698-23.555,12.698c16.974,21.632,51.948,13.115,61.606-2.756c0.476,1.177,0.84,2.399,1.071,3.66
						c1.065,5.801-0.664,11.598-4.868,16.323c-4.203,4.725-10.378,7.812-17.388,8.693l-0.301,0.036
						c-9.038,1.051-17.976-1.763-23.91-7.527l-2.059-1.999l-0.756,2.551c-2.783,9.383-12.038,16.383-23.576,17.833l-0.325,0.039
						c-14.101,1.639-27.679-5.663-31.581-16.985l-0.842-2.446l-1.968,1.953c-3.401,3.375-8.148,5.596-13.363,6.251l-0.243,0.03
						c-7.432,0.864-14.764-1.478-19.614-6.267l-1.408-1.389l-1.199,1.518c-3.964,5.021-10.34,8.417-17.494,9.316l-0.288,0.035
						c-11.025,1.282-21.983-3.664-26.646-12.028l-1.041-1.866l-1.649,1.537c-4.857,4.525-11.519,7.518-18.759,8.429l-0.355,0.043
						c-16.962,1.972-32.853-7.828-35.425-21.844l-0.001-0.008l0-0.003l-0.235-1.384l-1.665,0.251
						c-0.099,0.015-0.196,0.033-0.293,0.05c-0.064,0.011-0.127,0.024-0.192,0.033l-0.196,0.024
						c-6.781,0.788-13.504-1.814-17.127-6.63l-1.031-1.37l-1.443,1.087c-1.741,1.311-3.893,2.159-6.223,2.452L-19.094,483.581z"/>
					<path style="fill:#FFFFFF;" d="M218.69,465.858c0,0,7.881-2.013,5.74-8.664c2.504,2.753,4.267,6.025,5.022,9.642
						c10.09,0.344,19.11,5.178,23.729,12.441c-6.792-6.951-21.249-9.479-24.212-6.575C228.969,472.702,226.88,465.77,218.69,465.858
						z"/>
					<g>
						<path style="fill:#FFFFFF;" d="M45.257,466.114c-2.869-18.317,12.458-35.262,34.635-38.05
							c19.489-2.45,37.85,6.841,44.618,21.477c2.157-1.351,4.74-2.289,7.603-2.649c5.57-0.7,10.905,0.959,14.556,4.063
							c1.616-7.321,8.656-13.329,18.046-14.509c1.997-0.251,3.967-0.25,5.878-0.057c2.092-10.654,12.253-19.452,25.842-21.16
							c16.86-2.119,32.603,7.474,35.164,21.426c1.41,7.684-1.478,15.083-7.168,20.538c3.951-11.585,0.639-23.573-13.391-28.883
							c0,0,6.137,6.077,5.024,11.337c0,0-8.924-13.901-27.871-5.21c0,0,0.959-5.091,9.009-7.083
							c-12.282-0.383-20.999,9.492-18.889,18.699c0,0-11.329-6.585-24.246,1.104c-5.398,3.646-3.164,8.214-3.164,8.214
							s8.712-1.315,13.399,2.667c0,0-11.153-2.325-26.025,1.366c0,0,0.339-2.303,7.422-5.691c0,0-9.943-5.936-24.159,0.545
							c0,0-11.209-18.766-35.754-17.271c0,0,11.284,0.952,14.309,5.881c0,0-16.226-5.357-29.605,2.838c0,0,1.929-4.751,6.123-6.899
							c0,0-13.618-0.431-24.712,15.548c-3.077,4.432-3.74,13.412-2.648,15.548c0,0-12.68-8.309-27.336-2.166
							c2.524-2.413,6.05-4.128,10.162-4.645C36.983,462.477,41.703,463.696,45.257,466.114z"/>
						<path style="fill:none;stroke:#FFFFFF;stroke-miterlimit:10;" d="M-5.101,460.296c2.013-0.978,4.263-1.68,6.712-1.988
							c8.765-1.102,17.019,2.962,20.304,9.43C21.915,467.738,10.071,457.146-5.101,460.296z"/>
					</g>
				</g>
				<g>
					<path style="fill:#F8FBFF;" d="M458.972,476.59c-5.264-0.662-10.326,0.758-13.979,3.51c-3.544-4.707-9.446-8.159-16.591-9.057
						c-10.985-1.381-21.329,3.712-25.447,11.819c-3.163-3.024-7.583-5.174-12.735-5.821c-6.149-0.773-12.065,0.755-16.518,3.785
						c3.596-22.957-15.614-44.193-43.408-47.687c-24.424-3.07-47.436,8.574-55.919,26.917c-2.703-1.693-5.941-2.869-9.528-3.32
						c-6.98-0.877-13.667,1.202-18.242,5.093c-2.025-9.176-10.849-16.705-22.617-18.184c-2.503-0.315-4.971-0.313-7.367-0.072
						c-2.621-13.353-15.356-24.379-32.388-26.52c-21.13-2.656-40.861,9.366-44.07,26.852c-1.767,9.63,1.852,18.903,8.984,25.74
						c-3.138,3.451-5.348,7.552-6.294,12.085c-16.547,0.565-30.831,10.745-33.411,24.802c-2.928,15.952,10.325,30.848,29.602,33.271
						c12.54,1.576,24.535-2.518,32.197-9.961c3.562,12.003,15.536,21.643,31.22,23.615c19.129,2.404,37.08-7.44,42.25-22.442
						c4.408,4.374,10.667,7.499,18.006,8.421c10.452,1.314,20.425-2.152,26.753-8.4c5.101,6.463,13.376,11.171,23.325,12.421
						c15.292,1.922,29.74-4.924,35.911-15.991c6.199,5.775,14.777,9.86,24.727,11.11c22.613,2.842,43.728-10.024,47.163-28.737
						c0.002-0.01,0.002-0.018,0.004-0.028c0.224,0.034,0.44,0.084,0.667,0.113c9.681,1.217,18.878-2.587,23.745-9.056
						c2.391,1.802,5.427,3.061,8.864,3.493c9.267,1.165,17.921-4.108,19.329-11.777C474.611,484.916,468.24,477.754,458.972,476.59z
						"/>
					<path style="fill:#F0F6FF;" d="M454.351,502.717c5.015,0.583,9.832-1.001,13.052-3.885
						c-11.231,4.013-19.929-7.501-19.929-7.501c-16.248,14.942-32.669,2.632-32.669,2.632c-0.313,13.958-13.018,25.53-31.706,26.572
						c-18.688,1.042-34.884-11.242-33.699-22.262c-6.049,11.4-42.016,13.27-41.518-3.125c21.943-4.068,28.885-16.688,28.885-16.688
						c-28.272,18.461-63.497-0.196-63.497-0.196c0.958,10.513,19.919,15.932,19.919,15.932
						c-6.003,16.512-29.944,26.966-35.051,20.699c-7.723,7.801-18.019-0.204-18.019-0.204c-12.242,16.921-40.305,7.228-36.992-9.596
						c17.595-2.682,24.445-13.422,24.445-13.422c-34.176,12.858-67.086-1.937-67.086-1.937
						c3.777,11.408,29.521,15.914,29.521,15.914c-21.273,27.111-65.105,16.436-77.209-3.454c-0.596,1.476-1.053,3.007-1.343,4.587
						c-1.335,7.27,0.832,14.535,6.101,20.457c5.268,5.921,13.007,9.791,21.792,10.895l0.377,0.045
						c11.327,1.317,22.529-2.209,29.966-9.433l2.58-2.506l0.948,3.197c3.488,11.759,15.087,20.532,29.547,22.35l0.407,0.049
						c17.673,2.055,34.689-7.097,39.58-21.287l1.056-3.065l2.466,2.448c4.263,4.231,10.211,7.013,16.748,7.835l0.304,0.037
						c9.314,1.083,18.504-1.853,24.581-7.854l1.764-1.741l1.502,1.903c4.968,6.293,12.958,10.549,21.925,11.676l0.361,0.044
						c13.818,1.607,27.551-4.592,33.395-15.074l1.305-2.339l2.067,1.926c6.087,5.671,14.436,9.423,23.51,10.564l0.445,0.054
						c21.258,2.471,41.174-9.81,44.398-27.377l0.002-0.01l0.001-0.004l0.294-1.735l2.086,0.315c0.124,0.018,0.246,0.041,0.367,0.063
						c0.081,0.014,0.16,0.031,0.241,0.041l0.245,0.03c8.498,0.988,16.924-2.274,21.465-8.31l1.292-1.717l1.808,1.362
						c2.182,1.643,4.879,2.706,7.799,3.074L454.351,502.717z"/>
					<path style="fill:#FFFFFF;" d="M156.342,480.505c0,0-9.877-2.523-7.194-10.859c-3.138,3.451-5.348,7.552-6.294,12.085
						c-12.646,0.431-23.951,6.49-29.739,15.592c8.513-8.712,26.631-11.879,30.345-8.24
						C143.459,489.082,146.077,480.394,156.342,480.505z"/>
					<g>
						<path style="fill:#FFFFFF;" d="M373.702,480.826c3.596-22.956-15.614-44.193-43.408-47.687
							c-24.424-3.07-47.436,8.574-55.919,26.917c-2.703-1.693-5.941-2.869-9.528-3.32c-6.98-0.877-13.667,1.203-18.242,5.093
							c-2.025-9.176-10.849-16.705-22.617-18.184c-2.503-0.315-4.971-0.313-7.367-0.072c-2.621-13.353-15.356-24.379-32.388-26.519
							c-21.13-2.656-40.861,9.366-44.07,26.852c-1.767,9.63,1.852,18.903,8.984,25.74c-4.951-14.519-0.801-29.544,16.782-36.199
							c0,0-7.692,7.616-6.297,14.208c0,0,11.184-17.422,34.93-6.53c0,0-1.202-6.38-11.29-8.877
							c15.393-0.48,26.318,11.897,23.673,23.435c0,0,14.198-8.252,30.387,1.384c6.766,4.569,3.965,10.295,3.965,10.295
							s-10.918-1.648-16.793,3.343c0,0,13.978-2.914,32.617,1.712c0,0-0.424-2.886-9.301-7.133c0,0,12.461-7.44,30.278,0.683
							c0,0,14.048-23.519,44.809-21.645c0,0-14.142,1.193-17.934,7.371c0,0,20.336-6.713,37.103,3.557c0,0-2.417-5.954-7.673-8.646
							c0,0,17.068-0.54,30.971,19.486c3.856,5.554,4.688,16.809,3.319,19.487c0,0,15.891-10.414,34.26-2.715
							c-3.163-3.024-7.583-5.174-12.735-5.821C384.071,476.267,378.155,477.795,373.702,480.826z"/>
						<path style="fill:none;stroke:#FFFFFF;stroke-miterlimit:10;" d="M436.814,473.533c-2.522-1.225-5.342-2.105-8.411-2.491
							c-10.985-1.381-21.33,3.712-25.447,11.819C402.955,482.862,417.799,469.586,436.814,473.533z"/>
					</g>
				</g>
			</g>
			<g>
				<path style="fill:#E5F0FF;" d="M345.403,68.74c-6.462-0.453-10.686,4.355-16.214,4.367c-4.273,0.01-9.88-1.396-12.058-7.382
					c-1.216-3.171-4.667-5.588-8.964-5.889c-3.012-0.211-5.825,0.666-7.882,2.224c-1.475-1.228-3.469-2.051-5.73-2.209
					c-0.977-0.068-1.929-0.005-2.835,0.166c0.16-0.583,0.278-1.181,0.342-1.793c0.764-7.3-5.849-13.725-14.771-14.351
					c-7.609-0.533-14.436,3.325-16.755,9c-2.746-2.45-6.579-4.099-10.946-4.405c-4.388-0.307-8.524,0.796-11.746,2.846
					c-1.06-4.427-5.583-7.934-11.35-8.338c-2.196-0.154-4.308,0.161-6.191,0.842c-2.23-8.736-11.229-15.62-22.654-16.421
					c-13.951-0.977-26.229,7.484-27.423,18.899c-0.288,2.748,0.099,5.415,1.038,7.897c-2.334,1.207-3.98,3.255-4.234,5.679
					c-0.147,1.404,0.2,2.747,0.908,3.926c-1.193,1.243-2.16,2.643-2.846,4.162c-1.705-0.887-3.688-1.462-5.84-1.612
					c-7.138-0.5-13.419,3.829-14.031,9.669c-0.611,5.84,4.68,10.98,11.817,11.48c4.585,0.321,8.813-1.352,11.416-4.136
					c3.107,2.97,7.584,4.983,12.72,5.343c1.774,0.124,3.509,0.039,5.175-0.223c2.119,4.508,7.23,7.871,13.506,8.31
					c8.705,0.61,16.369-4.634,17.201-11.733c0.912,0.287,1.883,0.481,2.905,0.552c5.326,0.373,10.058-2.545,11.23-6.685
					c4.188,4.297,10.435,7.235,17.655,7.741c7.66,0.537,14.811-1.777,19.905-5.858c3.622,2.965,8.49,4.942,13.993,5.328
					c9.286,0.651,17.737-3.408,21.836-9.75c0.476,0.106,4.385,5.87,15.208,5.845c13.377-0.031,19.144-7.974,26.136-8.077
					c0.419-0.006,0.845,0.005,1.276,0.035c2.514,0.176,4.267,0.876,5.719,1.752C355.878,77.73,354.215,69.358,345.403,68.74z"/>
				<path style="fill:#CCDAF1;" d="M329.649,78.129c-15.455,5.459-21.692-7.646-21.692-7.646s-3.741,7.438-14,6.834
					c-10.258-0.604-12.136-5.39-12.136-5.39c5.371-1.699,6.9-5.64,6.9-5.64c-19.714,9.077-31.678-2.752-31.678-2.752
					c0.339,6.227,7.983,8.935,7.983,8.935c-7.214,4.734-17.716,5.406-24.76-4.118c-6.005,7.788-12.82,1.26-12.82,1.26
					c-7.654,13.093-25.951,7.178-26.864,0.756c9.565-2.339,13.695-11.205,13.695-11.205c-16.602,14.017-36.443,3.255-36.443,3.255
					c4.19,6.132,12.975,8.18,12.975,8.18c-9.477,17.016-26.965,5.265-26.965,5.265c-0.985,7.135-9.309,8.744-15.216,7.131
					c1.998,2.096,5.003,3.539,8.487,3.784l0.166,0.011c4.07,0.24,7.985-1.205,10.471-3.866l0.664-0.71l0.711,0.679
					c3.09,2.953,7.395,4.762,12.124,5.092l0.243,0.016c1.562,0.092,3.14,0.015,4.69-0.228l0.726-0.114l0.266,0.565
					c2.085,4.436,6.973,7.444,12.756,7.849l0.208,0.014c8.07,0.475,15.265-4.502,16.037-11.094l0.111-0.948l1.086,0.341
					c0.87,0.274,1.766,0.444,2.663,0.507l0.134,0.009c4.8,0.283,9.072-2.298,10.159-6.136l0.413-1.458l1.14,1.17
					c4.234,4.344,10.286,6.997,17.039,7.471l0.337,0.022c6.98,0.411,13.859-1.658,18.873-5.675l0.625-0.501l0.619,0.507
					c3.598,2.945,8.372,4.762,13.444,5.118l0.299,0.02c8.552,0.504,16.669-3.181,20.679-9.387l0.331-0.512l0.683,0.152
					c0.342,0.076,0.526,0.256,0.93,0.65c1.186,1.157,4.793,4.678,12.342,5.122c0.554,0.033,1.126,0.049,1.701,0.047
					c7.547-0.017,12.528-2.607,16.923-4.891c3.24-1.684,6.038-3.139,9.2-3.186c0.341-0.005,0.686,0.006,1.029,0.023
					C343.481,72.865,340.051,74.455,329.649,78.129z"/>
				<g>
					<path style="fill:#FFFFFF;" d="M165.827,70.096c0,0,1.895-4.244,4.119-5.808c0,0-4.705-3.665,0.707-9.737
						c-2.003,1.233-3.392,3.118-3.623,5.323c-0.147,1.404,0.2,2.747,0.908,3.926c-1.193,1.243-2.16,2.643-2.846,4.162
						c-1.705-0.887-3.688-1.462-5.84-1.612c-7.138-0.5-13.419,3.829-14.031,9.669C148.227,68.576,158.619,65.802,165.827,70.096z"/>
					<path style="fill:#FFFFFF;" d="M282.905,45.123c-1.716-0.672-3.606-1.109-5.614-1.25c-7.609-0.533-14.436,3.325-16.755,9
						c-2.746-2.45-6.579-4.098-10.946-4.404c-4.388-0.307-8.524,0.796-11.746,2.846c-1.06-4.427-5.583-7.934-11.35-8.338
						c-2.196-0.154-4.308,0.161-6.191,0.842c-2.23-8.736-11.229-15.62-22.654-16.421c-13.951-0.977-26.229,7.484-27.423,18.899
						c-0.288,2.748,0.099,5.415,1.038,7.897c0.74,1.674,0.964,2.493,0.964,2.493s-1.867,1.341-2.056,5.038
						c0,0,2.54-6.058,12.118-7.429c0,0-3.26-0.825-6.745,0.524c0,0-2.977-11.965,10.642-17.949c3.074-1.351,5.7-0.954,5.7-0.954
						s-4.896,3.017-5.115,6.632c0,0,5.088-7.439,20.081-2.042c0,0-1.944-3.662-5.619-4.442c0,0,9.592-0.403,15.662,10.112
						c0,0-2.647,0.973-4.561,4.81c0,0,15.107-8.22,24.748,2.021c0,0,14.021-6.349,22.112,2.108c0,0-2.854,0.719-4.773,2.379
						c0,0,7.528-2.701,13.828-1.524c0,0-2.624-1.525-5.635-2.025C262.614,53.948,267.66,42.754,282.905,45.123z"/>
				</g>
				<path style="fill:#FFFFFF;" d="M314.319,62.076c-1.629-1.246-3.758-2.071-6.152-2.239c-3.012-0.211-5.825,0.666-7.882,2.224
					c-1.475-1.228-3.469-2.051-5.73-2.209c-0.977-0.068-1.929-0.005-2.835,0.166c0,0,6.613,0.54,8.185,4.078
					C299.905,64.095,308.012,58.066,314.319,62.076z"/>
			</g>
			<g>
				<path style="fill:#E5F0FF;" d="M416.24,151.432c-0.877-1.979-3.368-3.487-6.47-3.675c-2.174-0.132-4.204,0.416-5.689,1.388
					c-1.065-0.766-2.503-1.28-4.135-1.378c-0.705-0.043-1.392-0.003-2.046,0.103c0.116-0.364,0.201-0.737,0.247-1.119
					c0.551-4.555-4.222-8.564-10.661-8.954c-5.492-0.333-10.419,2.075-12.093,5.616c-1.982-1.529-4.748-2.557-7.9-2.748
					c-3.167-0.192-6.152,0.496-8.477,1.776c-0.765-2.763-4.029-4.951-8.192-5.203c-1.585-0.096-3.109,0.101-4.469,0.525
					c-1.609-5.451-8.104-9.747-16.35-10.246c-10.069-0.61-18.93,4.67-19.793,11.793c-0.208,1.715,0.072,3.378,0.749,4.927
					c-1.685,0.753-2.873,2.031-3.056,3.544c-0.106,0.876,0.144,1.714,0.655,2.45c-0.861,0.775-1.559,1.649-2.055,2.597
					c-1.231-0.553-2.662-0.912-4.215-1.006c-5.152-0.312-9.685,2.389-10.126,6.033c-0.441,3.644,3.377,6.851,8.529,7.164
					c3.309,0.2,6.361-0.844,8.239-2.581c2.242,1.853,5.473,3.109,9.181,3.334c1.28,0.078,2.533,0.024,3.735-0.139
					c1.529,2.813,5.218,4.911,9.748,5.186c6.283,0.381,11.814-2.891,12.415-7.321c0.658,0.179,1.359,0.3,2.097,0.345
					c3.844,0.233,7.259-1.588,8.106-4.171c3.022,2.681,7.532,4.514,12.742,4.83c5.529,0.335,10.69-1.108,14.366-3.655
					c2.614,1.85,6.127,3.084,10.1,3.324c6.702,0.406,12.802-2.126,15.76-6.084C407.525,158.151,417.812,155.167,416.24,151.432z"/>
				<path style="fill:#CCDAF1;" d="M398.82,159.244c-7.387-0.571-8.065-3.943-8.065-3.943c3.876-1.06,4.98-3.519,4.98-3.519
					c-14.229,5.664-22.864-1.717-22.864-1.717c0.245,3.886,5.761,5.575,5.761,5.575c-5.207,2.954-12.787,3.373-17.871-2.57
					c-4.334,4.86-9.253,0.787-9.253,0.787c-5.524,8.169-18.73,4.479-19.389,0.472c6.904-1.459,9.884-6.992,9.884-6.992
					c-11.982,8.746-26.303,2.031-26.303,2.031c3.024,3.826,9.365,5.104,9.365,5.104c-6.84,10.617-19.462,3.285-19.462,3.285
					c-0.711,4.452-6.719,5.456-10.982,4.45c1.442,1.308,3.611,2.208,6.125,2.361l0.12,0.007c2.938,0.15,5.763-0.752,7.557-2.412
					l0.479-0.443l0.513,0.424c2.23,1.843,5.337,2.971,8.75,3.178l0.175,0.01c1.127,0.057,2.266,0.009,3.385-0.142l0.524-0.071
					l0.192,0.353c1.505,2.768,5.033,4.645,9.207,4.898l0.15,0.009c5.825,0.296,11.017-2.809,11.575-6.923l0.08-0.591l0.784,0.213
					c0.628,0.171,1.274,0.277,1.922,0.316l0.097,0.005c3.464,0.176,6.548-1.434,7.332-3.829l0.298-0.91l0.823,0.73
					c3.056,2.711,7.423,4.366,12.298,4.661l0.243,0.014c5.038,0.256,10.003-1.034,13.621-3.541l0.451-0.312l0.447,0.316
					c2.597,1.838,6.042,2.972,9.703,3.193l0.216,0.012c6.172,0.314,12.031-1.985,14.925-5.857
					C406.617,157.874,404.886,159.713,398.82,159.244z"/>
				<g>
					<path style="fill:#FFFFFF;" d="M307.037,154.158c0,0,1.367-2.648,2.973-3.624c0,0-3.396-2.287,0.51-6.076
						c-1.446,0.769-2.448,1.946-2.615,3.321c-0.106,0.876,0.144,1.714,0.655,2.45c-0.861,0.776-1.559,1.649-2.055,2.597
						c-1.231-0.553-2.662-0.912-4.215-1.006c-5.152-0.312-9.685,2.389-10.126,6.033C294.334,153.21,301.834,151.479,307.037,154.158
						z"/>
					<path style="fill:#FFFFFF;" d="M391.537,138.576c-1.239-0.419-2.602-0.692-4.052-0.78c-5.492-0.333-10.419,2.075-12.093,5.616
						c-1.982-1.529-4.748-2.557-7.9-2.748c-3.167-0.192-6.152,0.496-8.477,1.776c-0.765-2.763-4.029-4.951-8.192-5.203
						c-1.585-0.096-3.109,0.101-4.469,0.525c-1.609-5.451-8.104-9.747-16.35-10.246c-10.069-0.61-18.93,4.67-19.793,11.792
						c-0.208,1.715,0.072,3.379,0.749,4.927c0.534,1.044,0.695,1.556,0.695,1.556s-1.347,0.837-1.484,3.144
						c0,0,1.833-3.78,8.746-4.635c0,0-2.353-0.515-4.868,0.327c0,0-2.148-7.466,7.681-11.199c2.219-0.843,4.114-0.595,4.114-0.595
						s-3.534,1.882-3.692,4.138c0,0,3.672-4.642,14.493-1.274c0,0-1.403-2.285-4.056-2.772c0,0,6.923-0.251,11.304,6.31
						c0,0-1.911,0.607-3.292,3.001c0,0,10.903-5.129,17.862,1.261c0,0,10.12-3.962,15.959,1.315c0,0-2.06,0.449-3.445,1.485
						c0,0,5.433-1.685,9.98-0.951c0,0-1.894-0.952-4.067-1.263C376.893,144.083,380.535,137.098,391.537,138.576z"/>
				</g>
				<path style="fill:#FFFFFF;" d="M414.21,149.154c-1.175-0.777-2.713-1.292-4.44-1.397c-2.174-0.132-4.204,0.416-5.689,1.388
					c-1.065-0.766-2.503-1.28-4.135-1.378c-0.705-0.043-1.392-0.003-2.046,0.103c0,0,4.772,0.337,5.907,2.545
					C403.807,150.414,409.658,146.652,414.21,149.154z"/>
			</g>
			<g>
				<path style="fill:#E5F0FF;" d="M574.275,226.588c-8.314,0.039-11.048-6.226-13-8.903l-0.011,0.002
					c-1.757-2.656-4.706-4.471-8.13-4.629c-1.55-0.072-3.035,0.204-4.382,0.756c-1.736-3.132-4.997-5.323-8.836-5.501
					c-0.085-0.004-0.167,0.003-0.251,0.001c-3.622-4.002-8.772-6.619-14.591-6.888c-6.448-0.298-12.347,2.348-16.405,6.748
					c-4.328-6.028-11.267-10.093-19.255-10.461c-10.708-0.494-20.155,5.793-24.195,15.069c-2.139-1.399-4.66-2.275-7.398-2.401
					c-8.165-0.377-15.089,5.936-15.466,14.101c-0.377,8.165,5.936,15.089,14.101,15.466c4.03,0.186,7.753-1.263,10.541-3.754
					c4.235,6.714,11.57,11.321,20.1,11.715c6.829,0.315,13.142-2.131,17.87-6.348c0.764,0.214,1.561,0.354,2.388,0.392
					c2.192,0.101,4.258-0.468,6.005-1.524c2.874,1.719,6.199,2.777,9.779,2.942c9.609,0.443,18.001-5.648,20.889-14.349
					c1.754,2.675,4.714,4.505,8.154,4.664c2.046,0.094,3.975-0.421,5.626-1.374c0.013-0.006,0.025-0.009,0.038-0.015
					c4.441-1.928,6.967-3.54,13.187-3.943c1.101-0.071,2.142-0.093,3.128-0.079C578.429,228.331,576.658,226.577,574.275,226.588z"
					/>
				<path style="fill:#FFFFFF;" d="M546.736,216.646c0,0,9.896-4.929,15.703,2.784c0,0,0,0,0,0
					c-0.432-0.659-0.812-1.262-1.164-1.745l-0.011,0.002c-1.757-2.656-4.706-4.471-8.13-4.629c-1.55-0.072-3.036,0.204-4.382,0.756
					c-1.736-3.132-4.997-5.323-8.836-5.501c-0.085-0.004-0.167,0.003-0.251,0.001c-3.622-4.002-8.772-6.619-14.591-6.888
					c-6.448-0.298-12.347,2.348-16.405,6.748c-4.328-6.028-11.267-10.093-19.255-10.461c-10.708-0.494-20.155,5.793-24.195,15.069
					c-2.139-1.399-4.659-2.275-7.398-2.401c-6.862-0.317-12.845,4.092-14.805,10.354c0,0,7.58-11.159,20.862-5.865
					c-0.042,0.031-3.358,2.477-3.529,4.358c0,0,6.408-3.27,13.873-1.205c0,0-1.711-4.091-6.543-3.818
					c1.648-3.748,4.686-9.295,14.869-12.186c10.497-2.581,21.513,2.25,22.715,9.121c0,0-6.195,0.688-8.948,5.335
					c0,0,12.046-6.023,23.404,0c0,0-2.237-4.646-8.604-5.851c0,0,3.023-7.681,15.359-6.596c4.143,0.829,8.161,3.036,10.454,7.972
					C536.927,212,544.499,208.73,546.736,216.646z"/>
				<path style="fill:#CCDAF1;" d="M557.577,228.52c-9.094,3.558-12.433-1.165-13.498-3.567c0.141-0.042,0.281-0.086,0.417-0.146
					c2.731-1.199,5.873-4.308,5.873-4.308c-7.916,3.327-13.652,0.459-13.652,0.459c1.065,2.227,3.925,4.281,6.434,4.151
					c-4.505,11.299-23.432,17.552-29.972,9.607c-1.934,1.024-3.616,1.323-5.012,1.275c-4.221-0.703-4.679-3.455-4.679-3.455
					l6.157-3.937c1.476,0.833,3.158,1.175,4.563,0.558c2.731-1.199,5.873-4.308,5.873-4.308c-7.916,3.327-13.652,0.459-13.652,0.459
					c0.585,1.223,1.714,2.391,3.027,3.179c-10.495,4.094-18.244-0.426-18.244-0.426c1.95,2.065,8.719,4.704,8.719,4.704
					c-0.906,4.871-6.694,6.223-6.839,6.256c-8.699,1.449-18.985-0.956-22.543-8.836c2.729-1.202,5.863-4.303,5.863-4.303
					c-7.916,3.327-13.652,0.459-13.652,0.459c0.798,1.668,2.604,3.241,4.514,3.872c-6.679,4.635-15.397,5.395-21.878,2.13
					c2.307,3.761,6.376,6.355,11.106,6.574c0.216,0.009,0.431,0.015,0.645,0.015c3.377,0,6.63-1.246,9.159-3.508l0.91-0.814
					l0.651,1.033c4.209,6.672,11.414,10.872,19.275,11.235c0.378,0.018,0.754,0.025,1.129,0.025c5.902,0,11.587-2.171,16.007-6.113
					l0.421-0.376l0.544,0.153c0.723,0.203,1.449,0.323,2.156,0.356c0.151,0.007,0.302,0.01,0.452,0.01
					c1.752,0,3.47-0.479,4.97-1.386l0.531-0.321l0.533,0.319c2.808,1.678,6.022,2.645,9.297,2.796
					c0.313,0.014,0.626,0.021,0.936,0.021c8.608,0,16.213-5.491,18.925-13.665l0.673-2.026l1.17,1.785
					c1.635,2.492,4.379,4.062,7.339,4.199c0.143,0.006,0.286,0.009,0.429,0.009c1.617,0,3.219-0.431,4.633-1.247l0.143-0.068
					c0.71-0.308,1.37-0.608,2.005-0.896c2.59-1.176,4.77-2.165,8.023-2.728C563.507,227.607,559.569,227.74,557.577,228.52z"/>
			</g>
		</g>
	</g>
</g>
</svg>
